<svg xmlns="http://www.w3.org/2000/svg" viewBox="0 0 510.24 70.8"><defs><style>.cls-1{fill:#414042;}</style></defs><title>Asset 2</title><g id="Layer_2" data-name="Layer 2"><g id="Isolation_Mode" data-name="Isolation Mode"><path class="cls-1" d="M38.59,17c1.85.07,3.52.11,5,.11s3.4,0,5.86-.11l.12,1.26-3.71,1.15a1,1,0,0,0-.71,1q-.06,2-.06,4.89V49.19c0,2.32,0,4.27.06,5.86A1,1,0,0,0,46,56l3.54,1.09.06,1.27q-3.88-.09-7.44-.09t-6.87.09l-.12-1.27,3.39-1a1,1,0,0,0,.73-1c0-1.55.06-3.48.06-5.8V23.7L24.73,58.23l-2.15.24L7.89,23.7V49.19c0,2.32,0,4.25.06,5.8a1,1,0,0,0,.76,1l3.3,1,.06,1.27c-2.34-.06-4.29-.09-5.86-.09s-3.56,0-6.09.09L0,57.05,3.62,56a1,1,0,0,0,.8-.91c0-1.59.06-3.54.06-5.86V25.32q0-2.94-.06-4.89a1,1,0,0,0-.71-1L.06,18.28,0,17q3.8.11,6,.11c1.69,0,3.44,0,5.27-.11L25,49.31Z"/><path class="cls-1" d="M98.75,16.4l13.07,36a9.84,9.84,0,0,0,1.34,2.76,3.58,3.58,0,0,0,1.72,1.07l2.77.82.06,1.27q-3.85-.09-7.16-.09c-2.23,0-4.88,0-7.92.09l-.12-1.27,2.8-.82a2.3,2.3,0,0,0,.84-.46,1,1,0,0,0,.25-.78,5.19,5.19,0,0,0-.31-1.54q-.3-1-.87-2.55L102.46,43H88.27l-3.09,7.86c-.42,1.1-.74,2-1,2.62A5,5,0,0,0,83.85,55a.92.92,0,0,0,.28.75,2.34,2.34,0,0,0,.84.43l2.74.8.06,1.32q-4.18-.09-6.83-.09T75,58.32l-.15-1.27,3-.91a3,3,0,0,0,1.65-1.09,11.43,11.43,0,0,0,1.18-2.29l15-35.92ZM89.36,40.33h12.13L95.74,24.11Z"/><path class="cls-1" d="M143.76,17q3.81.11,7.32.11c2.35,0,4.77,0,7.29-.11l.14,1.26-3.65,1.09a.94.94,0,0,0-.79.91c0,.69,0,1.44,0,2.26s0,1.7,0,2.66V51.87c0,1.93-.07,3.68-.22,5.26a21.15,21.15,0,0,1-.79,4.22,11.39,11.39,0,0,1-1.58,3.31,11,11,0,0,1-2.59,2.6,16.84,16.84,0,0,1-3.77,2,39.28,39.28,0,0,1-5.24,1.56l-.44-1.47a17.4,17.4,0,0,0,4.81-2.86,10.43,10.43,0,0,0,2.65-3.56,14.43,14.43,0,0,0,1.15-4.5,56.32,56.32,0,0,0,.25-5.65V25.32c0-1,0-1.9,0-2.71s0-1.53,0-2.18a1,1,0,0,0-.71-1l-3.65-1.15Z"/><path class="cls-1" d="M194.47,17.13h7.15q6.6,0,13.92-.11l.18.23L214,26.35l-1.17.2L211,19.75h-13.6V36h2.68q3.06,0,6.83-.06a1,1,0,0,0,1-.77l1-4,1.59-.06q-.09,4.13-.09,6.09t.09,6l-1.59.12-1.06-4a1,1,0,0,0-.91-.79q-3.82-.06-6.92-.06h-2.65V49.13q0,3.27.06,6.45H211.6l3.59-7.48,1.33-.23-.65,10.24-.21.21q-7.62-.09-14.07-.09h-7q-3.56,0-7.3.09l-.12-1.27L190.79,56a1,1,0,0,0,.79-.91c0-.78,0-1.66,0-2.63s0-2.05,0-3.23V25.32c0-1,0-1.9,0-2.71s0-1.53,0-2.18a1,1,0,0,0-.71-1l-3.65-1.15L187.16,17C189.7,17.09,192.13,17.13,194.47,17.13ZM211.83,1.84l-9.68,9.62-1.3-.89L206.52,0l5.12,1.44Z"/><path class="cls-1" d="M266.72,19.7a18.06,18.06,0,0,0-5.69-1,9.47,9.47,0,0,0-6.19,1.89,6.39,6.39,0,0,0-2.31,5.24,6.79,6.79,0,0,0,.81,3.36,8.57,8.57,0,0,0,2.18,2.53,17.2,17.2,0,0,0,3.1,1.94c1.16.57,2.36,1.13,3.59,1.68s2.67,1.21,4,1.87a17.83,17.83,0,0,1,3.46,2.31,10,10,0,0,1,2.47,3.18A9.53,9.53,0,0,1,273,47a10.13,10.13,0,0,1-4.58,8.94Q263.87,59,256.59,59a38.69,38.69,0,0,1-10.36-1.59l-.18-.24,1.44-10,1.33-.2,2.06,8.36a17.28,17.28,0,0,0,6.39,1.23,10.81,10.81,0,0,0,6.84-1.94,6.64,6.64,0,0,0,2.46-5.53,6.82,6.82,0,0,0-.79-3.32,8.1,8.1,0,0,0-2.14-2.46,18.31,18.31,0,0,0-3.05-1.86c-1.13-.56-2.31-1.12-3.53-1.67-1.37-.59-2.71-1.22-4-1.91a18.81,18.81,0,0,1-3.52-2.4A10.11,10.11,0,0,1,247,32.13a10.66,10.66,0,0,1-.94-4.63,9.31,9.31,0,0,1,4.46-8.25,19.81,19.81,0,0,1,11-2.91,46.37,46.37,0,0,1,9.75,1.09l.21.2-1.74,9.19-1.18.21Z"/><path class="cls-1" d="M316.21,58.23q-3.61,0-8,.09l-.11-1.27,4.35-1.29a.93.93,0,0,0,.77-.91c0-1.49.06-3.4.06-5.72V19.75H302.88l-2.62,7.84-1.18.2-.77-10.54.21-.23q7.25.11,13.86.11h7.86q6.6,0,13.93-.11l.18.23-1.86,10.34-1.18.2-1.88-8H319V49.13c0,2.32,0,4.23.06,5.72a.93.93,0,0,0,.76.91l4.36,1.29.06,1.27Q319.72,58.23,316.21,58.23Z"/><path class="cls-1" d="M371.89,49.19c0,1.18,0,2.25,0,3.21s0,1.84.05,2.62c0,.49.36.83,1,1l3.32,1,.06,1.27q-3.8-.09-7.3-.09c-2.37,0-4.81,0-7.3.09l-.12-1.27L365.26,56a1,1,0,0,0,.8-.91c0-.78,0-1.66,0-2.63s0-2.05,0-3.23V25.32c0-1,0-1.9,0-2.71s0-1.53,0-2.18a1,1,0,0,0-.71-1l-3.65-1.15L361.64,17c2.53.07,5,.11,7.3.11s4.79,0,7.3-.11l.12,1.26-3.65,1.09a.93.93,0,0,0-.76.91c0,.69,0,1.44-.05,2.26s0,1.7,0,2.66Z"/><path class="cls-1" d="M438.13,27.29l-1.17.18-2.15-7.74a27.61,27.61,0,0,0-6.63-.92q-7.21,0-11.33,5t-4.12,13.07q0,8.59,4.71,13.72t13,5.12a30,30,0,0,0,9.86-1.8l.32,1.33a22.53,22.53,0,0,1-13.13,4q-9.51,0-15.38-5.8t-5.87-15.28q0-10.09,6.46-16t16.83-5.89a44.73,44.73,0,0,1,10.18,1.21l.21.23Z"/><path class="cls-1" d="M510.24,36.74q0,10.18-5.79,16.38t-16.16,6.2q-9.85,0-15.25-5.73t-5.4-15.5q0-10.19,5.81-16.11T489.55,16q9.88,0,15.29,5.55T510.24,36.74Zm-36.16.38q0,9.6,3.89,14.71t11.39,5.11q7.39,0,10.91-4.64t3.52-14.56q0-9.3-3.74-14.31t-11.54-5q-7.56,0-11,4.64T474.08,37.12Z"/></g></g></svg>