<svg xmlns="http://www.w3.org/2000/svg" viewBox="0 0 174.79 133.95"><defs><style>.cls-1{fill:#414042;}</style></defs><title>Asset 1</title><g id="Layer_2" data-name="Layer 2"><g id="Isolation_Mode" data-name="Isolation Mode"><path class="cls-1" d="M160.12,63.28c0-.19.08-.37.13-.56l.27-1.24.15-.75.21-1.12c0-.26.08-.52.13-.77s.11-.71.16-1.06.07-.52.11-.78l.12-1c0-.13,0-.27,0-.41a87.2,87.2,0,0,0,7.85-11,30,30,0,0,1-9.18,18.76ZM148.06,38.49c2.71,1.56,5.38,3.21,8.08,5l0,.37c0,.28.05.56.07.84s0,.49,0,.74,0,.59,0,.89l0,.73c0,.31,0,.62,0,.94v.72c0,.33,0,.66,0,1,0,.17,0,.34,0,.52a32.42,32.42,0,0,1-8.3-11.73ZM139.62,16.6c3,.89,6,1.83,9.15,2.84l.18.33c.13.25.26.5.38.75s.22.42.32.63.26.52.38.79.21.42.31.63.25.55.37.83.2.43.29.65.25.57.37.86.14.32.2.48a34,34,0,0,1-11.95-8.79ZM164.1,75.27A41,41,0,0,1,146,91.75l.46-.57.88-1.13.56-.75.78-1.07.54-.77.71-1,.51-.77c.22-.34.44-.68.65-1l.27-.42a107.57,107.57,0,0,0,12.79-9Zm-17-12.61a78.68,78.68,0,0,1,5.35,7.44c0,.12-.09.25-.14.38-.11.3-.23.6-.35.9s-.2.51-.31.77-.25.61-.39.92-.22.52-.34.78-.28.62-.43.93-.24.53-.37.79-.3.63-.46.94l-.29.58a35.22,35.22,0,0,1-2.27-14.43ZM135.36,96.12l-.34.34c-.27.28-.56.55-.84.82l-.71.66-.89.82-.74.66-.94.81-.78.66c-.32.27-.66.53-1,.8l-.59.48a53.78,53.78,0,0,1,6-15.32,55.69,55.69,0,0,1,.82,9.27Zm-89.7,5.57-1-.8-.79-.66L43,99.42l-.75-.66-.89-.82-.7-.66-.85-.82-.34-.34a54.63,54.63,0,0,1,.83-9.27,54.08,54.08,0,0,1,6,15.32l-.6-.48Zm-35-26.42a107.57,107.57,0,0,0,12.79,9c.08.14.18.28.27.42.21.34.43.68.65,1s.33.51.51.76.47.7.72,1,.35.5.53.75l.8,1.11.53.7c.3.4.62.81.94,1.21l.4.51A41.05,41.05,0,0,1,10.7,75.27Zm17-12.62A35.41,35.41,0,0,1,25.4,77.09c-.1-.19-.2-.39-.29-.58s-.32-.63-.47-.94l-.37-.79-.43-.93-.34-.78c-.13-.31-.26-.61-.38-.92l-.32-.77-.35-.9c0-.13-.09-.26-.14-.38a79.71,79.71,0,0,1,5.36-7.45ZM5.5,44.52a87.2,87.2,0,0,0,7.85,11c0,.14,0,.28.05.41,0,.34.07.69.12,1s.07.52.11.78.1.7.16,1,.08.52.13.78l.21,1.12.15.75c.08.41.18.83.27,1.24,0,.19.08.37.13.56A30,30,0,0,1,5.5,44.52ZM23.79,24.05l.29-.65.38-.83.3-.63c.13-.27.25-.53.38-.79s.22-.42.32-.63l.39-.75c.06-.11.12-.22.17-.33,3.13-1,6.16-2,9.16-2.84a34,34,0,0,1-12,8.79l.21-.48.36-.86Zm2.95,14.44a32.32,32.32,0,0,1-8.31,11.73c0-.17,0-.35,0-.52,0-.33,0-.66,0-1s0-.48,0-.72,0-.63,0-.94,0-.49,0-.73,0-.6.05-.89,0-.49,0-.73l.06-.85c0-.13,0-.25,0-.37,2.69-1.78,5.37-3.43,8.08-5Zm-13.16-21a70.29,70.29,0,0,0,2.86,11.34l-.12.35c-.11.31-.21.63-.32.94l-.21.66c-.09.32-.19.65-.29,1s-.13.45-.19.68-.19.67-.28,1-.11.44-.17.67-.18.74-.26,1.11c0,.18-.09.35-.13.53a23.59,23.59,0,0,1-.89-18.27ZM160.2,35.19c-.08-.37-.17-.75-.26-1.11l-.18-.67q-.13-.52-.27-1c-.06-.23-.13-.45-.2-.68s-.19-.65-.29-1l-.21-.66-.31-.94-.12-.35a70.25,70.25,0,0,0,2.85-11.34,23.55,23.55,0,0,1-.89,18.27c0-.18-.08-.35-.12-.53Zm11.45-.25A5,5,0,0,0,168,37.53a84.33,84.33,0,0,1-6.25,10.32q-.06-3-.39-5.8a26.4,26.4,0,0,0,6.16-16.86,29.33,29.33,0,0,0-4.62-15.57,2.56,2.56,0,0,0-3.21-.84,3.69,3.69,0,0,0-2.33,3,67.17,67.17,0,0,1-1.78,10.31c-.93-2-1.93-3.9-3-5.68l-.06-.11A105.61,105.61,0,0,0,141.6.69a2,2,0,0,0-2.87-.13,2.28,2.28,0,0,0-.32,3.05,108,108,0,0,1,7,10c-3.11-.91-6.15-1.76-9.21-2.59a3,3,0,0,0-3.13,1.16,2.88,2.88,0,0,0-.18,3.31c5.31,7.9,12.46,13.57,20.78,15.77.53,1.7,1,3.5,1.39,5.38-2.78-1.61-5.57-3.12-8.42-4.58a3.62,3.62,0,0,0-3.69.49,3.2,3.2,0,0,0-1.39,3.29c1.8,6.31,5.36,15.3,14.25,21a59.19,59.19,0,0,1-1.1,5.86,92.51,92.51,0,0,0-6.1-7,3.61,3.61,0,0,0-3.84-.48h0a4.15,4.15,0,0,0-2.74,3c-1.44,9.59-.58,18.67,3.53,25.54q-1.83,2.79-4.12,5.66a58.47,58.47,0,0,0-1.92-9.11c-.34-1.12-1.69-1.78-3.35-1.67a5.53,5.53,0,0,0-4.07,2.16C126,90,121.75,99.24,121.22,107.45a60.72,60.72,0,0,1-18.49,9c-4.25,1.3-8.57,2.57-15.33,5.28-6.76-2.71-11.09-4-15.33-5.28a60.62,60.62,0,0,1-18.49-9C53.05,99.24,48.84,90,42.7,80.75a5.53,5.53,0,0,0-4.08-2.16c-1.66-.11-3,.54-3.34,1.67a58.73,58.73,0,0,0-1.93,9.11q-2.3-2.87-4.11-5.66c4.1-6.87,5-15.95,3.53-25.54a4.19,4.19,0,0,0-2.74-3h0a3.61,3.61,0,0,0-3.84.48,90.33,90.33,0,0,0-6.1,7A56.42,56.42,0,0,1,19,56.84c8.88-5.72,12.44-14.71,14.24-21a3.21,3.21,0,0,0-1.38-3.29A3.62,3.62,0,0,0,28.13,32c-2.85,1.46-5.64,3-8.43,4.58.4-1.88.87-3.68,1.4-5.38,8.32-2.2,15.46-7.87,20.77-15.77a2.88,2.88,0,0,0-.17-3.31A3,3,0,0,0,38.57,11c-3.06.83-6.11,1.68-9.22,2.59a110,110,0,0,1,7-10,2.29,2.29,0,0,0-.32-3,2,2,0,0,0-2.88.13,105.54,105.54,0,0,0-11,15.61l-.06.11q-1.56,2.67-3,5.68A67.15,67.15,0,0,1,17.4,11.78a3.7,3.7,0,0,0-2.34-3,2.57,2.57,0,0,0-3.21.84A29.24,29.24,0,0,0,7.24,25.19,26.35,26.35,0,0,0,13.4,42.05a56.06,56.06,0,0,0-.39,5.8A84.33,84.33,0,0,1,6.76,37.53a5,5,0,0,0-3.61-2.59c-1.48-.21-2.62.47-2.81,1.73-1.67,9.88,2.71,24.94,16.37,33.54.7,2,1.53,4,2.51,6.13A102.72,102.72,0,0,1,8.35,67.49a5.82,5.82,0,0,0-4.59-1.62,2,2,0,0,0-1.69,2.76c3.3,10.65,14.36,24.19,30.12,28.88.76.22,1.53.43,2.32.62A90.17,90.17,0,0,0,47.93,109.3c9.84,7.13,15.77,9.08,21.36,10.92,3.52,1.12,7,2.16,11.8,4.09-3.79,1.57-8.25,3.47-13.72,5.68-1.59.63-1.84,2-.53,3a5.3,5.3,0,0,0,2.75,1,5.46,5.46,0,0,0,2.54-.34c6.37-2.71,11.25-4.91,15.27-6.64,4,1.73,8.9,3.93,15.27,6.64a5.42,5.42,0,0,0,2.54.34,5.27,5.27,0,0,0,2.74-1c1.31-1,1.06-2.34-.53-3-5.47-2.21-9.93-4.11-13.71-5.68,4.84-1.93,8.27-3,11.79-4.09,5.6-1.84,11.53-3.79,21.36-10.92a90.8,90.8,0,0,0,13.43-11.17c.78-.19,1.55-.39,2.32-.62,15.76-4.69,26.82-18.23,30.11-28.88A2,2,0,0,0,171,65.87a5.84,5.84,0,0,0-4.59,1.62,102.72,102.72,0,0,1-10.87,8.85,63.47,63.47,0,0,0,2.51-6.13c13.67-8.6,18-23.66,16.38-33.53-.19-1.27-1.33-2-2.81-1.74Z"/><path class="cls-1" d="M107.23,21q4,.16,7.2.17t8.42-.17L123,22.8l-5.33,1.64a1.45,1.45,0,0,0-1,1.44q-.08,2.81-.08,7V67.22c0,3.33,0,6.13.08,8.42A1.42,1.42,0,0,0,117.86,77l5.08,1.57.08,1.81q-5.58-.12-10.68-.12c-3.34,0-6.64,0-9.88.12l-.17-1.81L107.16,77a1.41,1.41,0,0,0,1-1.48q.09-3.33.09-8.33V30.58l-21,49.63-3.09.33-21.11-50V67.22q0,5,.09,8.33A1.42,1.42,0,0,0,64.3,77L69,78.52l.08,1.81c-3.36-.08-6.16-.12-8.42-.12s-5.12,0-8.76.12l-.17-1.81L57,77a1.4,1.4,0,0,0,1.14-1.31c.06-2.29.09-5.09.09-8.42V32.91q0-4.23-.09-7a1.46,1.46,0,0,0-1-1.44L51.86,22.8,51.77,21q5.46.16,8.64.17Q64,21.15,68,21L87.63,67.39Z"/></g></g></svg>